{
  "accessors": [
    {
      "bufferView": 2,
      "componentType": 5126,
      "count": 1020,
      "max": [
        0.55260300636291504,
        0.55641698837280273,
        1.5934170484542847
      ],
      "min": [
        -0.52455002069473267,
        -0.43009001016616821,
        -0.20328399538993835
      ],
      "type": "VEC3"
    },
    {
      "bufferView": 2,
      "byteOffset": 12240,
      "componentType": 5126,
      "count": 1020,
      "max": [
        0.99371862411499023,
        0.97991740703582764,
        0.9951511025428772
      ],
      "min": [
        -0.99891310930252075,
        -0.99886620044708252,
        -0.98451417684555054
      ],
      "type": "VEC3"
    },
    {
      "bufferView": 1,
      "componentType": 5126,
      "count": 1020,
      "max": [
        0.97114098072052002,
        0.98753499984741211
      ],
      "min": [
        0.016614999622106552,
        0.029498999938368797
      ],
      "type": "VEC2"
    },
    {
      "bufferView": 0,
      "componentType": 5125,
      "count": 1443,
      "max": [
        1019
      ],
      "min": [
        0
      ],
      "type": "SCALAR"
    },
    {
      "bufferView": 2,
      "byteOffset": 24480,
      "componentType": 5126,
      "count": 1910,
      "max": [
        0.52095800638198853,
        0.34804201126098633,
        1.2771780490875244
      ],
      "min": [
        -0.52095800638198853,
        -0.36826100945472717,
        -1.6378190517425537
      ],
      "type": "VEC3"
    },
    {
      "bufferView": 2,
      "byteOffset": 47400,
      "componentType": 5126,
      "count": 1910,
      "max": [
        0.99811166524887085,
        0.99027615785598755,
        1
      ],
      "min": [
        -0.99811166524887085,
        -0.98298895359039307,
        -1
      ],
      "type": "VEC3"
    },
    {
      "bufferView": 1,
      "byteOffset": 8160,
      "componentType": 5126,
      "count": 1910,
      "max": [
        0.99227100610733032,
        0.98533397912979126
      ],
      "min": [
        0.0059949997812509537,
        0.012655000202357769
      ],
      "type": "VEC2"
    },
    {
      "bufferView": 0,
      "byteOffset": 5772,
      "componentType": 5125,
      "count": 2874,
      "max": [
        1909
      ],
      "min": [
        0
      ],
      "type": "SCALAR"
    }
  ],
  "asset": {
    "extras": {
      "author": "micaelsampaio (https://sketchfab.com/micaelsampaio)",
      "license": "CC-BY-4.0 (http://creativecommons.org/licenses/by/4.0/)",
      "source": "https://sketchfab.com/3d-models/low-poly-little-girl-30e234683aa343798c50438af550d863",
      "title": "Low Poly Little Girl"
    },
    "generator": "Sketchfab-10.15.0",
    "version": "2.0"
  },
  "bufferViews": [
    {
      "buffer": 0,
      "byteLength": 17268,
      "byteOffset": 0,
      "name": "floatBufferViews",
      "target": 34963
    },
    {
      "buffer": 0,
      "byteLength": 23440,
      "byteOffset": 17268,
      "byteStride": 8,
      "name": "floatBufferViews",
      "target": 34962
    },
    {
      "buffer": 0,
      "byteLength": 70320,
      "byteOffset": 40708,
      "byteStride": 12,
      "name": "floatBufferViews",
      "target": 34962
    }
  ],
  "buffers": [
    {
      "byteLength": 111028,
      "uri": "scene.bin"
    }
  ],
  "extensionsUsed": [
    "KHR_materials_unlit"
  ],
  "images": [
    {
      "uri": "textures/Material_baseColor.png"
    },
    {
      "uri": "textures/hair_baseColor.png"
    }
  ],
  "materials": [
    {
      "doubleSided": true,
      "extensions": {
        "KHR_materials_unlit": {}
      },
      "name": "Material",
      "pbrMetallicRoughness": {
        "baseColorFactor": [
          1,
          1,
          1,
          1
        ],
        "baseColorTexture": {
          "index": 0,
          "texCoord": 0
        },
        "metallicFactor": 0,
        "roughnessFactor": 1
      }
    },
    {
      "doubleSided": true,
      "extensions": {
        "KHR_materials_unlit": {}
      },
      "name": "hair",
      "pbrMetallicRoughness": {
        "baseColorFactor": [
          1,
          1,
          1,
          1
        ],
        "baseColorTexture": {
          "index": 1,
          "texCoord": 0
        },
        "metallicFactor": 0,
        "roughnessFactor": 1
      }
    }
  ],
  "meshes": [
    {
      "primitives": [
        {
          "attributes": {
            "NORMAL": 1,
            "POSITION": 0,
            "TEXCOORD_0": 2
          },
          "indices": 3,
          "material": 1,
          "mode": 4
        }
      ]
    },
    {
      "primitives": [
        {
          "attributes": {
            "NORMAL": 5,
            "POSITION": 4,
            "TEXCOORD_0": 6
          },
          "indices": 7,
          "material": 0,
          "mode": 4
        }
      ]
    }
  ],
  "nodes": [
    {
      "children": [
        1
      ],
      "name": "RootNode (gltf orientation matrix)",
      "rotation": [
        -0.70710678118654746,
        -0,
        -0,
        0.70710678118654757
      ]
    },
    {
      "children": [
        2
      ],
      "name": "RootNode (model correction matrix)"
    },
    {
      "children": [
        3,
        4
      ],
      "name": "b34fbbd0a5d241a3926ec34beba8c41e.obj.cleaner.materialmerger.gles"
    },
    {
      "mesh": 0,
      "name": ""
    },
    {
      "mesh": 1,
      "name": ""
    }
  ],
  "samplers": [
    {
      "magFilter": 9729,
      "minFilter": 9987,
      "wrapS": 10497,
      "wrapT": 10497
    }
  ],
  "scene": 0,
  "scenes": [
    {
      "name": "OSG_Scene",
      "nodes": [
        0
      ]
    }
  ],
  "textures": [
    {
      "sampler": 0,
      "source": 0
    },
    {
      "sampler": 0,
      "source": 1
    }
  ]
}

