{
  "accessors": [
    {
      "bufferView": 2,
      "componentType": 5126,
      "count": 374,
      "max": [
        30.157201766967773,
        30.000001907348633,
        70.005706787109375
      ],
      "min": [
        -30,
        -30.018434524536133,
        -0.002567291259765625
      ],
      "type": "VEC3"
    },
    {
      "bufferView": 2,
      "byteOffset": 4488,
      "componentType": 5126,
      "count": 374,
      "max": [
        1,
        1,
        1
      ],
      "min": [
        -1,
        -1,
        -1
      ],
      "type": "VEC3"
    },
    {
      "bufferView": 3,
      "componentType": 5126,
      "count": 374,
      "max": [
        1,
        0.99999797344207764,
        1,
        1
      ],
      "min": [
        -1,
        -1,
        -1,
        1
      ],
      "type": "VEC4"
    },
    {
      "bufferView": 1,
      "componentType": 5126,
      "count": 374,
      "max": [
        0.99641448259353638,
        0.99467891454696655
      ],
      "min": [
        0.0060395398177206516,
        0.0052226521074771881
      ],
      "type": "VEC2"
    },
    {
      "bufferView": 1,
      "byteOffset": 2992,
      "componentType": 5126,
      "count": 374,
      "max": [
        0.99641448259353638,
        0.99467891454696655
      ],
      "min": [
        0.0060395398177206516,
        0.0052226521074771881
      ],
      "type": "VEC2"
    },
    {
      "bufferView": 0,
      "componentType": 5125,
      "count": 654,
      "max": [
        373
      ],
      "min": [
        0
      ],
      "type": "SCALAR"
    }
  ],
  "asset": {
    "extras": {
      "author": "KloWorks (https://sketchfab.com/kloworks)",
      "license": "CC-BY-4.0 (http://creativecommons.org/licenses/by/4.0/)",
      "source": "https://sketchfab.com/3d-models/crate-box-e1a6856037c54d0d9019aedf61315569",
      "title": "Crate box"
    },
    "generator": "Sketchfab-6.84.0",
    "version": "2.0"
  },
  "bufferViews": [
    {
      "buffer": 0,
      "byteLength": 2616,
      "byteOffset": 0,
      "name": "floatBufferViews",
      "target": 34963
    },
    {
      "buffer": 0,
      "byteLength": 5984,
      "byteOffset": 2616,
      "byteStride": 8,
      "name": "floatBufferViews",
      "target": 34962
    },
    {
      "buffer": 0,
      "byteLength": 8976,
      "byteOffset": 8600,
      "byteStride": 12,
      "name": "floatBufferViews",
      "target": 34962
    },
    {
      "buffer": 0,
      "byteLength": 5984,
      "byteOffset": 17576,
      "byteStride": 16,
      "name": "floatBufferViews",
      "target": 34962
    }
  ],
  "buffers": [
    {
      "byteLength": 23560,
      "uri": "scene.bin"
    }
  ],
  "images": [
    {
      "uri": "textures/Material_51_baseColor.png"
    },
    {
      "uri": "textures/Material_51_normal.png"
    }
  ],
  "materials": [
    {
      "doubleSided": true,
      "emissiveFactor": [
        0,
        0,
        0
      ],
      "name": "Material_51",
      "normalTexture": {
        "index": 1,
        "scale": 1,
        "texCoord": 0
      },
      "pbrMetallicRoughness": {
        "baseColorFactor": [
          1,
          1,
          1,
          1
        ],
        "baseColorTexture": {
          "index": 0,
          "texCoord": 0
        },
        "metallicFactor": 0,
        "roughnessFactor": 0.59999999999999998
      }
    }
  ],
  "meshes": [
    {
      "name": "crate002_Material #51_0",
      "primitives": [
        {
          "attributes": {
            "NORMAL": 1,
            "POSITION": 0,
            "TANGENT": 2,
            "TEXCOORD_0": 3,
            "TEXCOORD_1": 4
          },
          "indices": 5,
          "material": 0,
          "mode": 4
        }
      ]
    }
  ],
  "nodes": [
    {
      "children": [
        1
      ],
      "name": "RootNode (gltf orientation matrix)",
      "rotation": [
        -0.70710678118654746,
        -0,
        -0,
        0.70710678118654757
      ]
    },
    {
      "children": [
        2
      ],
      "name": "RootNode (model correction matrix)"
    },
    {
      "children": [
        3
      ],
      "matrix": [
        1,
        0,
        0,
        0,
        0,
        0,
        1,
        0,
        0,
        -1,
        0,
        0,
        0,
        0,
        0,
        1
      ],
      "name": "9d111f7aa7d344d78f66f155b759a9a0.fbx"
    },
    {
      "children": [
        4
      ],
      "name": "RootNode"
    },
    {
      "children": [
        5
      ],
      "matrix": [
        1.688184392278913e-07,
        -1.1102230246251565e-16,
        -0.99999999999998579,
        0,
        -0.99999994039533713,
        -8.7422769586315581e-08,
        -1.688184290545059e-07,
        0,
        -7.5121261203904503e-08,
        0.85928708314895297,
        -1.2783604079964499e-14,
        0,
        0,
        0,
        0,
        1
      ],
      "name": "crate002"
    },
    {
      "children": [
        6
      ],
      "matrix": [
        1,
        0,
        -0,
        0,
        0,
        1,
        0,
        0,
        0,
        0,
        1,
        0,
        -1.5147792100906372,
        -0.44202142953872681,
        0.008262336254119873,
        1
      ],
      "name": ""
    },
    {
      "mesh": 0,
      "name": "crate002_Material #51_0"
    }
  ],
  "samplers": [
    {
      "magFilter": 9729,
      "minFilter": 9987,
      "wrapS": 10497,
      "wrapT": 10497
    }
  ],
  "scene": 0,
  "scenes": [
    {
      "name": "OSG_Scene",
      "nodes": [
        0
      ]
    }
  ],
  "textures": [
    {
      "sampler": 0,
      "source": 0
    },
    {
      "sampler": 0,
      "source": 1
    }
  ]
}

